<?xml version="1.0" encoding="UTF-8" standalone="no"?>
<svg xmlns="http://www.w3.org/2000/svg" width="200" height="200" viewBox="0 0 200 200">
  <!-- Flower pot -->
  <path d="M75,150 L85,190 L115,190 L125,150 Z" fill="#bf360c"/>
  <ellipse cx="100" cy="150" rx="25" ry="5" fill="#8d4e38"/>
  
  <!-- Stem and branches -->
  <path d="M100,150 L100,70" stroke="#33691e" stroke-width="3" fill="none"/>
  <path d="M100,120 L80,100" stroke="#33691e" stroke-width="2" fill="none"/>
  <path d="M100,100 L120,80" stroke="#33691e" stroke-width="2" fill="none"/>
  <path d="M100,80 L70,70" stroke="#33691e" stroke-width="2" fill="none"/>
  
  <!-- Leaves -->
  <path d="M80,100 C70,95 60,100 65,110 C70,120 85,105 80,100 Z" fill="#4caf50"/>
  <path d="M120,80 C130,75 140,80 135,90 C130,100 115,85 120,80 Z" fill="#4caf50"/>
  <path d="M70,70 C60,65 50,70 55,80 C60,90 75,75 70,70 Z" fill="#66bb6a"/>
  
  <!-- Top leaves/flower -->
  <ellipse cx="100" cy="60" rx="15" ry="10" fill="#388e3c"/>
  <circle cx="100" cy="55" r="8" fill="#ec407a"/>
  <circle cx="100" cy="55" r="5" fill="#fce4ec"/>
  
  <!-- Leaf details -->
  <path d="M75,105 L85,98" stroke="#1b5e20" stroke-width="1" fill="none"/>
  <path d="M125,85 L115,78" stroke="#1b5e20" stroke-width="1" fill="none"/>
  <path d="M65,75 L75,68" stroke="#1b5e20" stroke-width="1" fill="none"/>
</svg>