<?xml version="1.0" encoding="UTF-8" standalone="no"?>
<svg xmlns="http://www.w3.org/2000/svg" width="200" height="200" viewBox="0 0 200 200">
  <!-- Pot -->
  <rect x="75" y="150" width="50" height="30" rx="5" ry="5" fill="#ff7043"/>
  <ellipse cx="100" cy="150" rx="30" ry="5" fill="#e64a19"/>
  
  <!-- Stem -->
  <path d="M100,65 C100,65 100,145 100,145" stroke="#43a047" stroke-width="3" fill="none"/>
  
  <!-- Monstera leaves -->
  <path d="M100,65 C90,60 70,65 65,75 C60,85 70,95 80,93 C90,91 100,75 100,65Z" fill="#2e7d32"/>
  <path d="M100,65 C110,60 130,65 135,75 C140,85 130,95 120,93 C110,91 100,75 100,65Z" fill="#2e7d32"/>
  
  <path d="M100,85 C90,80 65,85 60,100 C55,115 70,125 85,120 C100,115 100,85 100,85Z" fill="#388e3c"/>
  <path d="M100,85 C110,80 135,85 140,100 C145,115 130,125 115,120 C100,115 100,85 100,85Z" fill="#388e3c"/>
  
  <path d="M100,105 C90,100 70,105 65,120 C60,135 75,145 90,140 C105,135 100,105 100,105Z" fill="#43a047"/>
  <path d="M100,105 C110,100 130,105 135,120 C140,135 125,145 110,140 C95,135 100,105 100,105Z" fill="#43a047"/>
  
  <!-- Leaf holes/details -->
  <ellipse cx="80" cy="85" rx="3" ry="5" fill="#1b5e20"/>
  <ellipse cx="120" cy="85" rx="3" ry="5" fill="#1b5e20"/>
  
  <ellipse cx="75" cy="105" rx="5" ry="7" fill="#1b5e20"/>
  <ellipse cx="125" cy="105" rx="5" ry="7" fill="#1b5e20"/>
  
  <ellipse cx="85" cy="125" rx="4" ry="6" fill="#1b5e20"/>
  <ellipse cx="115" cy="125" rx="4" ry="6" fill="#1b5e20"/>
</svg>