<?xml version="1.0" encoding="UTF-8" standalone="no"?>
<svg xmlns="http://www.w3.org/2000/svg" width="200" height="200" viewBox="0 0 200 200">
  <!-- Pot -->
  <path d="M70,150 C70,150 65,120 65,120 C65,120 135,120 135,120 C135,120 130,150 130,150 Z" fill="#a05a2c"/>
  <rect x="75" y="150" width="50" height="20" fill="#854c24"/>
  
  <!-- Stem -->
  <path d="M100,120 C100,120 100,60 100,60" stroke="#2e7d32" stroke-width="4" fill="none"/>
  
  <!-- Leaves -->
  <path d="M100,110 C100,110 70,90 60,95 C50,100 55,120 70,115 C85,110 100,110 100,110" fill="#4caf50"/>
  <path d="M100,100 C100,100 130,80 140,85 C150,90 145,110 130,105 C115,100 100,100 100,100" fill="#4caf50"/>
  <path d="M100,90 C100,90 70,70 60,75 C50,80 55,100 70,95 C85,90 100,90 100,90" fill="#66bb6a"/>
  <path d="M100,80 C100,80 130,60 140,65 C150,70 145,90 130,85 C115,80 100,80 100,80" fill="#66bb6a"/>
  
  <!-- Top leaf -->
  <ellipse cx="100" cy="50" rx="25" ry="10" fill="#81c784" transform="rotate(-20,100,50)"/>
  <ellipse cx="100" cy="50" rx="25" ry="10" fill="#81c784" transform="rotate(20,100,50)"/>
</svg>