<?xml version="1.0" encoding="UTF-8"?>
<svg width="400" height="400" viewBox="0 0 400 400" fill="none" xmlns="http://www.w3.org/2000/svg">
  <!-- 식물 화분 -->
  <rect x="150" y="300" width="100" height="80" rx="5" fill="#e28743" />
  <rect x="140" y="300" width="120" height="20" rx="5" fill="#c27433" />
  
  <!-- 식물 줄기 -->
  <path d="M200 300 L200 200" stroke="#2e7d32" stroke-width="8" />
  
  <!-- 좌측 잎 -->
  <path d="M200 220 Q150 200 170 150 Q200 170 200 220" fill="#4caf50" />
  <path d="M200 250 Q140 230 120 190 Q180 220 200 250" fill="#4caf50" />
  <path d="M200 280 Q150 270 140 230 Q190 250 200 280" fill="#4caf50" />
  
  <!-- 우측 잎 -->
  <path d="M200 220 Q250 200 230 150 Q200 170 200 220" fill="#2e7d32" />
  <path d="M200 250 Q260 230 280 190 Q220 220 200 250" fill="#2e7d32" />
  <path d="M200 280 Q250 270 260 230 Q210 250 200 280" fill="#2e7d32" />
  
  <!-- 중앙 잎 -->
  <circle cx="200" cy="150" r="30" fill="#81c784" />
  
  <!-- 텍스트 -->
  <text x="200" y="350" font-family="Arial" font-size="18" text-anchor="middle" fill="#333">Plant</text>
</svg>